<svg xmlns="http://www.w3.org/2000/svg" viewBox="0 0 420 240"><rect width="420" height="240" rx="20" fill="#FEF3C7"/><ellipse cx="210" cy="206" rx="120" ry="10" fill="#E5E7EB"/><path d="M110 160q100-28 200 0v8q-14 46-100 54q-86-8-100-54z" fill="#7C2D12"/><path d="M124 160q86-22 172 0c-7 36-50 50-86 52c-44-3-77-16-86-52z" fill="#D97706"/><path d="M290 118c34-12 60-12 84 4c7 4 7 14 0 18c-24 14-50 16-84 4c-6-3-9-12-6-18c2-3 4-6 6-8z" fill="#C2410C"/><circle cx="312" cy="130" r="5" fill="#EF4444"/><circle cx="330" cy="136" r="5" fill="#F59E0B"/><circle cx="296" cy="136" r="5" fill="#84CC16"/></svg>